Coordinates
version=1
nRows=19
nColumns=24
inDegrees=yes

Units are S.I. units (second, meters, Newtons, ...)
Angles are in degrees.

endheader
time	pelvis_tilt	pelvis_list	pelvis_rotation	pelvis_tx	pelvis_ty	pelvis_tz	hip_flexion_r	hip_adduction_r	hip_rotation_r	knee_angle_r	ankle_angle_r	subtalar_angle_r	mtp_angle_r	hip_flexion_l	hip_adduction_l	hip_rotation_l	knee_angle_l	ankle_angle_l	subtalar_angle_l	mtp_angle_l	lumbar_extension	lumbar_bending	lumbar_rotation
      3.16500000	     -0.62097287	     -5.06182142	      0.56329967	     -1.13957210	      0.93800397	      0.23233896	     11.81865108	     12.40475914	      7.49449337	    -23.74094158	     15.50133127	    -15.31744122	      0.00000000	     24.75695181	     -5.93118687	     -2.57963348	    -70.02712044	     12.51167397	    -13.16374695	      0.00000000	     -9.13407627	      7.09295507	     -7.67779900
      3.17000000	     -0.58646432	     -4.80227571	      0.30090378	     -1.13256585	      0.93908043	      0.23286304	     11.01878056	     12.19273120	      7.91951266	    -23.28120924	     15.63919770	    -15.40281067	      0.00000000	     25.26433702	     -5.67030337	     -2.72192151	    -69.09870793	     13.22650029	    -12.38543584	      0.00000000	     -9.22149105	      6.72765101	     -7.47290497
      3.17500000	     -0.55787042	     -4.54823706	      0.03142629	     -1.12557082	      0.94007168	      0.23338375	     10.23761172	     11.97834409	      8.33403705	    -22.83422422	     15.77138002	    -15.48786716	      0.00000000	     25.74317574	     -5.41578007	     -2.87788647	    -68.07521017	     13.87967834	    -11.68595382	      0.00000000	     -9.30331717	      6.36533489	     -7.26848749
      3.18000000	     -0.52890873	     -4.30182492	     -0.24504101	     -1.11858789	      0.94097545	      0.23391875	      9.46609873	     11.76609569	      8.74272146	    -22.39560250	     15.90345297	    -15.58061887	      0.00000000	     26.18870042	     -5.17280241	     -3.04783256	    -66.96115889	     14.46404082	    -11.07348792	      0.00000000	     -9.38538023	      6.01005709	     -7.06274032
      3.18500000	     -0.49987839	     -4.06915200	     -0.52542191	     -1.11160865	      0.94178694	      0.23445380	      8.70545672	     11.56068174	      9.13782432	    -21.96757541	     16.03143089	    -15.67590288	      0.00000000	     26.60088367	     -4.94425445	     -3.22503263	    -65.75801504	     14.98378308	    -10.55612172	      0.00000000	     -9.46666236	      5.66706056	     -6.86271905
      3.19000000	     -0.46687215	     -3.85172669	     -0.81505016	     -1.10463600	      0.94250674	      0.23497495	      7.95359735	     11.36375949	      9.52404107	    -21.55556174	     16.15824734	    -15.77403679	      0.00000000	     26.97248967	     -4.72982641	     -3.40904960	    -64.46487257	     15.44570071	    -10.13468285	      0.00000000	     -9.55231040	      5.34754676	     -6.66051106
      3.19500000	     -0.42102257	     -3.65643345	     -1.09978626	     -1.09767435	      0.94314107	      0.23545562	      7.19764949	     11.18206433	      9.92077302	    -21.15773041	     16.28022753	    -15.87494601	      0.00000000	     27.29869867	     -4.52134024	     -3.56571226	    -63.08886299	     15.84242079	     -9.81364380	      0.00000000	     -9.65783468	      5.05534898	     -6.43659834
      3.20000000	     -0.37227490	     -3.48274708	     -1.38549577	     -1.09070190	      0.94366244	      0.23594730	      6.45015666	     11.01706972	     10.28760110	    -20.77375011	     16.41366083	    -15.98258441	      0.00000000	     27.58996719	     -4.33805943	     -3.72551940	    -61.63516922	     16.18513655	     -9.57312255	      0.00000000	     -9.76185085	      4.78492251	     -6.22470872
      3.20500000	     -0.32126132	     -3.33033491	     -1.67128706	     -1.08372457	      0.94407665	      0.23642944	      5.71196280	     10.86755331	     10.63670904	    -20.40762461	     16.55473020	    -16.08442420	      0.00000000	     27.84633525	     -4.17215214	     -3.87339244	    -60.10527824	     16.47119828	     -9.40516326	      0.00000000	     -9.86920945	      4.53892285	     -6.01048661
      3.21000000	     -0.25995222	     -3.20073067	     -1.95690369	     -1.07674263	      0.94439412	      0.23689247	      4.97386752	     10.73534179	     10.97101594	    -20.05974754	     16.70220271	    -16.18685384	      0.00000000	     28.05928971	     -4.02450486	     -4.00899496	    -58.50170403	     16.70551114	     -9.30065698	      0.00000000	     -9.98928765	      4.32005935	     -5.79160916
      3.21500000	     -0.19100363	     -3.09392536	     -2.23934202	     -1.06975677	      0.94461397	      0.23734716	      4.23892068	     10.62160064	     11.28599981	    -19.73163043	     16.85657027	    -16.28607419	      0.00000000	     28.23124236	     -3.89642262	     -4.12955057	    -56.82560097	     16.89205038	     -9.24446251	      0.00000000	    -10.11833670	      4.12514926	     -5.57178764
      3.22000000	     -0.12343230	     -3.00106066	     -2.51919371	     -1.06276872	      0.94472687	      0.23776384	      3.51807988	     10.51474041	     11.57695347	    -19.42451834	     17.02392497	    -16.38032544	      0.00000000	     28.37204672	     -3.77640431	     -4.23264686	    -55.08003347	     17.03503729	     -9.21289813	      0.00000000	    -10.24882417	      3.95657233	     -5.35899897
      3.22500000	     -0.03464576	     -2.93424417	     -2.79512155	     -1.05577913	      0.94476647	      0.23819328	      2.78327479	     10.43180958	     11.85443175	    -19.13483564	     17.19505045	    -16.46863231	      0.00000000	     28.45617152	     -3.67966456	     -4.31199814	    -53.26588734	     17.13745796	     -9.20525962	      0.00000000	    -10.40479073	      3.80489517	     -5.13067010
      3.23000000	      0.03605289	     -2.87596528	     -3.06607304	     -1.04878356	      0.94468600	      0.23858310	      2.07937457	     10.35094146	     12.09494972	    -18.86251415	     17.38364093	    -16.54934074	      0.00000000	     28.52607895	     -3.58818018	     -4.37580779	    -51.38469513	     17.20411444	     -9.19289179	      0.00000000	    -10.54530231	      3.67224241	     -4.92745051
      3.23500000	      0.09815052	     -2.82805955	     -3.32454760	     -1.04177023	      0.94449685	      0.23896967	      1.40054183	     10.27937804	     12.30551189	    -18.62337134	     17.58652869	    -16.62063676	      0.00000000	     28.57211630	     -3.50834606	     -4.42657690	    -49.43801847	     17.23717430	     -9.16671106	      0.00000000	    -10.66483749	      3.54793827	     -4.74390381
      3.24000000	      0.23110156	     -2.81203953	     -3.58403025	     -1.03482266	      0.94432797	      0.23928926	      0.65149353	     10.22880122	     12.52756559	    -18.39171660	     17.78083057	    -16.68189154	      0.00000000	     28.50801870	     -3.44255456	     -4.41946175	    -47.42931133	     17.22941958	     -9.11953738	      0.00000000	    -10.89729236	      3.46646246	     -4.48632663
      3.24500000	      0.27809080	     -2.77878517	     -3.82790410	     -1.02782209	      0.94395273	      0.23960274	      0.01002729	     10.16280615	     12.69514683	    -18.18720421	     18.00331317	    -16.74237241	      0.00000000	     28.50211925	     -3.37229176	     -4.43063941	    -45.35614320	     17.18870738	     -9.04057845	      0.00000000	    -11.01290010	      3.37225624	     -4.32455830
      3.25000000	      0.36948364	     -2.76072618	     -4.06625230	     -1.02085044	      0.94356868	      0.23988895	     -0.66740735	     10.10602037	     12.86544081	    -18.00726404	     18.23186738	    -16.77970290	      0.00000000	     28.41056526	     -3.30963445	     -4.40232042	    -43.21948095	     17.11349839	     -8.91936968	      0.00000000	    -11.19191113	      3.29113591	     -4.11223724
      3.25500000	      0.44629830	     -2.74965856	     -4.29240673	     -1.01390212	      0.94308907	      0.24013391	     -1.31331576	     10.05270725	     13.01215498	    -17.85311410	     18.46931587	    -16.80975682	      0.00000000	     28.30334337	     -3.25229813	     -4.34366762	    -41.02898886	     17.00466571	     -8.75236686	      0.00000000	    -11.36037820	      3.22077012	     -3.92141326
